<svg width="30" height="29" viewBox="0 0 30 29" fill="none" xmlns="http://www.w3.org/2000/svg">
<path d="M14.7963 18.131C16.8214 18.131 18.463 16.4894 18.463 14.4643C18.463 12.4393 16.8214 10.7976 14.7963 10.7976C12.7713 10.7976 11.1297 12.4393 11.1297 14.4643C11.1297 16.4894 12.7713 18.131 14.7963 18.131Z" fill="#805AD5"/>
<path fill-rule="evenodd" clip-rule="evenodd" d="M15.2973 0.135C14.9866 -0.045 14.6053 -0.045 14.2946 0.135C12.8013 0.999 11.7959 2.615 11.7959 4.46433C11.7959 6.31367 12.8013 7.92967 14.2946 8.79367C14.6053 8.97367 14.9866 8.97367 15.2973 8.79367C16.7906 7.92967 17.7959 6.31367 17.7959 4.46433C17.7959 2.615 16.7906 0.999 15.2973 0.135Z" fill="#805AD5"/>
<path fill-rule="evenodd" clip-rule="evenodd" d="M4.3973 3.29235C4.05063 3.38435 3.7813 3.65368 3.6893 4.00035C3.24396 5.66835 3.67596 7.52168 4.98263 8.82835C6.29063 10.1363 8.14396 10.5683 9.81196 10.123C10.1573 10.031 10.428 9.76035 10.52 9.41501C10.9653 7.74701 10.5333 5.89368 9.2253 4.58568C7.91863 3.27901 6.0653 2.84701 4.3973 3.29235Z" fill="#805AD5"/>
<path fill-rule="evenodd" clip-rule="evenodd" d="M0.53195 13.8977C0.35195 14.2083 0.35195 14.5897 0.53195 14.9003C1.39595 16.3937 3.01195 17.399 4.86128 17.399C6.71062 17.399 8.32662 16.3937 9.19062 14.9003C9.37062 14.5897 9.37062 14.2083 9.19062 13.8977C8.32662 12.4043 6.71062 11.399 4.86128 11.399C3.01195 11.399 1.39595 12.4043 0.53195 13.8977Z" fill="#805AD5"/>
<path fill-rule="evenodd" clip-rule="evenodd" d="M3.6893 24.7977C3.7813 25.143 4.05063 25.4137 4.3973 25.5057C6.0653 25.951 7.91863 25.519 9.2253 24.2123C10.5333 22.9043 10.9653 21.051 10.52 19.383C10.428 19.0377 10.1573 18.767 9.81196 18.675C8.14396 18.2297 6.29063 18.6617 4.98263 19.9697C3.67596 21.2763 3.24396 23.1297 3.6893 24.7977Z" fill="#805AD5"/>
<path fill-rule="evenodd" clip-rule="evenodd" d="M15.2973 20.0044C14.9866 19.8244 14.6053 19.8244 14.2946 20.0044C12.8013 20.8684 11.7959 22.4844 11.7959 24.3337C11.7959 26.1817 12.8013 27.799 14.2946 28.663C14.6053 28.843 14.9866 28.843 15.2973 28.663C16.7906 27.799 17.7959 26.1817 17.7959 24.3337C17.7959 22.4844 16.7906 20.8684 15.2973 20.0044Z" fill="#805AD5"/>
<path fill-rule="evenodd" clip-rule="evenodd" d="M19.7801 18.675C19.4348 18.767 19.1641 19.0377 19.0721 19.383C18.6268 21.051 19.0588 22.9043 20.3668 24.2123C21.6734 25.519 23.5268 25.951 25.1948 25.5057C25.5414 25.4137 25.8108 25.143 25.9028 24.7977C26.3481 23.1297 25.9161 21.2763 24.6094 19.9697C23.3014 18.6617 21.4481 18.2297 19.7801 18.675Z" fill="#805AD5"/>
<path fill-rule="evenodd" clip-rule="evenodd" d="M20.4014 13.8977C20.2214 14.2083 20.2214 14.5897 20.4014 14.9003C21.2654 16.3937 22.8814 17.399 24.7307 17.399C26.58 17.399 28.196 16.3937 29.06 14.9003C29.24 14.5897 29.24 14.2083 29.06 13.8977C28.196 12.4043 26.58 11.399 24.7307 11.399C22.8814 11.399 21.2654 12.4043 20.4014 13.8977Z" fill="#805AD5"/>
<path fill-rule="evenodd" clip-rule="evenodd" d="M19.0721 9.41501C19.1641 9.76035 19.4348 10.031 19.7801 10.123C21.4481 10.5683 23.3014 10.1363 24.6094 8.82835C25.9161 7.52168 26.3481 5.66835 25.9028 4.00035C25.8108 3.65368 25.5414 3.38435 25.1948 3.29235C23.5268 2.84701 21.6734 3.27901 20.3668 4.58568C19.0588 5.89368 18.6268 7.74701 19.0721 9.41501Z" fill="#805AD5"/>
</svg>
