<svg width="161" height="29" viewBox="0 0 161 29" fill="none" xmlns="http://www.w3.org/2000/svg">
<path d="M14.7963 18.131C16.8214 18.131 18.463 16.4894 18.463 14.4643C18.463 12.4393 16.8214 10.7976 14.7963 10.7976C12.7713 10.7976 11.1297 12.4393 11.1297 14.4643C11.1297 16.4894 12.7713 18.131 14.7963 18.131Z" fill="#805AD5"/>
<path fill-rule="evenodd" clip-rule="evenodd" d="M15.2973 0.135C14.9866 -0.045 14.6053 -0.045 14.2946 0.135C12.8013 0.999 11.7959 2.615 11.7959 4.46433C11.7959 6.31367 12.8013 7.92967 14.2946 8.79367C14.6053 8.97367 14.9866 8.97367 15.2973 8.79367C16.7906 7.92967 17.7959 6.31367 17.7959 4.46433C17.7959 2.615 16.7906 0.999 15.2973 0.135Z" fill="#805AD5"/>
<path fill-rule="evenodd" clip-rule="evenodd" d="M4.3973 3.29235C4.05063 3.38435 3.7813 3.65368 3.6893 4.00035C3.24396 5.66835 3.67596 7.52168 4.98263 8.82835C6.29063 10.1363 8.14396 10.5683 9.81196 10.123C10.1573 10.031 10.428 9.76035 10.52 9.41501C10.9653 7.74701 10.5333 5.89368 9.2253 4.58568C7.91863 3.27901 6.0653 2.84701 4.3973 3.29235Z" fill="#805AD5"/>
<path fill-rule="evenodd" clip-rule="evenodd" d="M0.53195 13.8977C0.35195 14.2083 0.35195 14.5897 0.53195 14.9003C1.39595 16.3937 3.01195 17.399 4.86128 17.399C6.71062 17.399 8.32662 16.3937 9.19062 14.9003C9.37062 14.5897 9.37062 14.2083 9.19062 13.8977C8.32662 12.4043 6.71062 11.399 4.86128 11.399C3.01195 11.399 1.39595 12.4043 0.53195 13.8977Z" fill="#805AD5"/>
<path fill-rule="evenodd" clip-rule="evenodd" d="M3.6893 24.7977C3.7813 25.143 4.05063 25.4137 4.3973 25.5057C6.0653 25.951 7.91863 25.519 9.2253 24.2123C10.5333 22.9043 10.9653 21.051 10.52 19.383C10.428 19.0377 10.1573 18.767 9.81196 18.675C8.14396 18.2297 6.29063 18.6617 4.98263 19.9697C3.67596 21.2763 3.24396 23.1297 3.6893 24.7977Z" fill="#805AD5"/>
<path fill-rule="evenodd" clip-rule="evenodd" d="M15.2973 20.0044C14.9866 19.8244 14.6053 19.8244 14.2946 20.0044C12.8013 20.8684 11.7959 22.4844 11.7959 24.3337C11.7959 26.1817 12.8013 27.799 14.2946 28.663C14.6053 28.843 14.9866 28.843 15.2973 28.663C16.7906 27.799 17.7959 26.1817 17.7959 24.3337C17.7959 22.4844 16.7906 20.8684 15.2973 20.0044Z" fill="#805AD5"/>
<path fill-rule="evenodd" clip-rule="evenodd" d="M19.7801 18.675C19.4348 18.767 19.1641 19.0377 19.0721 19.383C18.6268 21.051 19.0588 22.9043 20.3668 24.2123C21.6734 25.519 23.5268 25.951 25.1948 25.5057C25.5414 25.4137 25.8108 25.143 25.9028 24.7977C26.3481 23.1297 25.9161 21.2763 24.6094 19.9697C23.3014 18.6617 21.4481 18.2297 19.7801 18.675Z" fill="#805AD5"/>
<path fill-rule="evenodd" clip-rule="evenodd" d="M20.4014 13.8977C20.2214 14.2083 20.2214 14.5897 20.4014 14.9003C21.2654 16.3937 22.8814 17.399 24.7307 17.399C26.58 17.399 28.196 16.3937 29.06 14.9003C29.24 14.5897 29.24 14.2083 29.06 13.8977C28.196 12.4043 26.58 11.399 24.7307 11.399C22.8814 11.399 21.2654 12.4043 20.4014 13.8977Z" fill="#805AD5"/>
<path fill-rule="evenodd" clip-rule="evenodd" d="M19.0721 9.41501C19.1641 9.76035 19.4348 10.031 19.7801 10.123C21.4481 10.5683 23.3014 10.1363 24.6094 8.82835C25.9161 7.52168 26.3481 5.66835 25.9028 4.00035C25.8108 3.65368 25.5414 3.38435 25.1948 3.29235C23.5268 2.84701 21.6734 3.27901 20.3668 4.58568C19.0588 5.89368 18.6268 7.74701 19.0721 9.41501Z" fill="#805AD5"/>
<path d="M35.3619 22.5041C35.0602 22.1613 34.9093 21.7224 34.9093 21.1876C35.3619 21.1876 35.6773 21.1121 35.8556 20.9613C36.0476 20.8104 36.1436 20.543 36.1436 20.159V10.4904C36.1436 10.1064 36.0476 9.839 35.8556 9.68814C35.6773 9.52357 35.3619 9.44129 34.9093 9.44129C34.9093 8.92014 35.0602 8.48814 35.3619 8.14529H40.3607C40.4979 8.30986 40.6076 8.50871 40.6899 8.74186C40.7722 8.975 40.8133 9.20814 40.8133 9.44129C40.3607 9.44129 40.0384 9.52357 39.8464 9.68814C39.6682 9.839 39.579 10.1064 39.579 10.4904V20.159C39.579 20.543 39.6682 20.8104 39.8464 20.9613C40.0384 21.1121 40.3607 21.1876 40.8133 21.1876C40.8133 21.4344 40.7722 21.6744 40.6899 21.9076C40.6076 22.1407 40.4979 22.3396 40.3607 22.5041H35.3619Z" fill="black"/>
<path d="M42.176 22.5041C42.0251 22.3533 41.9017 22.1887 41.8057 22.0104C41.7234 21.8321 41.6822 21.6333 41.6822 21.4139C42.0937 21.4139 42.3885 21.3247 42.5668 21.1464C42.7451 20.9681 42.8342 20.6801 42.8342 20.2824V14.2756C42.8342 13.919 42.7314 13.6584 42.5257 13.4939C42.3337 13.3293 41.9771 13.247 41.456 13.247V12.3213C41.7714 12.143 42.1691 11.9784 42.6491 11.8276C43.1428 11.6767 43.616 11.5601 44.0685 11.4779C44.5348 11.3819 44.8914 11.3339 45.1382 11.3339C45.4262 11.3339 45.6594 11.423 45.8377 11.6013C46.0297 11.7796 46.1394 12.1636 46.1668 12.7533C46.5097 12.3281 46.9417 11.9853 47.4628 11.7247C47.9977 11.4641 48.6148 11.3339 49.3142 11.3339C50.2742 11.3339 50.9942 11.5807 51.4742 12.0744C51.968 12.5544 52.2148 13.3773 52.2148 14.543V20.159C52.2148 20.831 52.544 21.2287 53.2022 21.3521L53.2228 21.9487C53.0857 22.0859 52.8662 22.2093 52.5645 22.319C52.2628 22.415 51.9337 22.4904 51.5771 22.5453C51.2342 22.6001 50.912 22.6276 50.6102 22.6276C50.0205 22.6276 49.5817 22.5179 49.2937 22.2984C49.0194 22.079 48.8822 21.7293 48.8822 21.2493V14.831C48.8822 14.2687 48.7588 13.8779 48.512 13.6584C48.2651 13.439 47.9634 13.3293 47.6068 13.3293C47.0445 13.3293 46.5714 13.5556 46.1874 14.0081V20.2824C46.1874 20.6801 46.2697 20.9681 46.4342 21.1464C46.6125 21.3247 46.9074 21.4139 47.3188 21.4139C47.3188 21.8253 47.1611 22.1887 46.8457 22.5041H42.176Z" fill="black"/>
<path d="M58.288 22.5041C57.9862 22.1613 57.8354 21.7224 57.8354 21.1876C58.3291 21.1876 58.6925 21.1121 58.9257 20.9613C59.1725 20.8104 59.296 20.543 59.296 20.159V10.4904C59.296 10.1064 59.1657 9.839 58.9051 9.68814C58.6582 9.52357 58.3017 9.44129 57.8354 9.44129C57.8354 8.93386 57.9931 8.50186 58.3085 8.14529H61.5382C62.128 8.14529 62.6217 8.22757 63.0194 8.39214C63.4308 8.55671 63.76 8.93386 64.0068 9.52357L66.1874 14.8927L67.0102 17.4436L67.792 14.8927L70.384 8.14529H75.0742C75.3897 8.50186 75.5474 8.93386 75.5474 9.44129C75.0811 9.44129 74.7314 9.52357 74.4982 9.68814C74.2788 9.839 74.1691 10.1064 74.1691 10.4904V20.159C74.1691 20.543 74.272 20.8104 74.4777 20.9613C74.6971 21.1121 75.0537 21.1876 75.5474 21.1876C75.5474 21.7087 75.3897 22.1476 75.0742 22.5041H69.9725C69.8354 22.3396 69.7257 22.1407 69.6434 21.9076C69.5611 21.6744 69.52 21.4344 69.52 21.1876C69.9862 21.1876 70.336 21.1121 70.5691 20.9613C70.816 20.8104 70.9394 20.543 70.9394 20.159V11.6424L67.4422 20.4676C67.264 20.9201 67.0034 21.2219 66.6605 21.3727C66.3314 21.5099 65.9337 21.5784 65.4674 21.5784L61.3942 11.6424V20.159C61.3942 20.543 61.5314 20.8104 61.8057 20.9613C62.0937 21.1121 62.4982 21.1876 63.0194 21.1876C63.0194 21.4344 62.9782 21.6744 62.896 21.9076C62.8137 22.1407 62.704 22.3396 62.5668 22.5041H58.288Z" fill="black"/>
<path d="M81.2202 22.6893C79.6842 22.6893 78.4568 22.2024 77.5379 21.2287C76.6328 20.255 76.1802 18.8973 76.1802 17.1556C76.1802 15.9624 76.4065 14.9339 76.8591 14.0699C77.3117 13.1921 77.9219 12.5201 78.6899 12.0539C79.4717 11.5876 80.3562 11.3544 81.3437 11.3544C82.5779 11.3544 83.5654 11.7179 84.3059 12.4447C85.0602 13.1579 85.4374 14.1659 85.4374 15.4687C85.4374 15.9899 85.3482 16.4493 85.1699 16.847C85.0054 17.231 84.6557 17.423 84.1208 17.423H79.6774C79.7185 18.5064 79.9654 19.2744 80.4179 19.727C80.8842 20.1796 81.4877 20.4059 82.2282 20.4059C82.6945 20.4059 83.1265 20.3373 83.5242 20.2001C83.9219 20.0493 84.2922 19.8436 84.6351 19.583C84.7585 19.6927 84.8545 19.8641 84.9231 20.0973C85.0054 20.3167 85.0465 20.5019 85.0465 20.6527C85.0465 20.8721 84.8888 21.1464 84.5734 21.4756C84.2717 21.791 83.8328 22.0721 83.2568 22.319C82.6945 22.5659 82.0157 22.6893 81.2202 22.6893ZM79.6774 15.8596H81.7551C81.9882 15.8596 82.1322 15.7704 82.1871 15.5921C82.2557 15.4139 82.2899 15.1944 82.2899 14.9339C82.2899 14.0561 82.1802 13.4801 81.9608 13.2059C81.7551 12.9179 81.5082 12.7739 81.2202 12.7739C80.9871 12.7739 80.7539 12.863 80.5208 13.0413C80.2877 13.2196 80.0957 13.535 79.9448 13.9876C79.7939 14.4264 79.7048 15.0504 79.6774 15.8596Z" fill="black"/>
<path d="M101.447 22.6276C100.94 22.6276 100.501 22.559 100.131 22.4219C99.7741 22.271 99.5958 21.983 99.5958 21.5579V14.7076C99.5958 14.2687 99.4723 13.9327 99.2255 13.6996C98.9923 13.4527 98.6769 13.3293 98.2792 13.3293C98.0598 13.3293 97.8335 13.3704 97.6003 13.4527C97.3809 13.535 97.1821 13.6584 97.0038 13.823C97.0175 13.8779 97.0243 13.9327 97.0243 13.9876C97.0243 14.0287 97.0243 14.0767 97.0243 14.1316V20.2824C97.0243 20.6801 97.1066 20.9681 97.2712 21.1464C97.4358 21.311 97.6963 21.3933 98.0529 21.3933C98.0529 21.6127 98.0049 21.8184 97.9089 22.0104C97.8266 22.1887 97.7101 22.3533 97.5592 22.5041H93.1775C93.0403 22.3533 92.9238 22.1887 92.8278 22.0104C92.7455 21.8184 92.7043 21.6127 92.7043 21.3933C93.0609 21.3933 93.3078 21.311 93.4449 21.1464C93.5958 20.9681 93.6712 20.6801 93.6712 20.2824V14.7076C93.6712 14.2687 93.5409 13.9327 93.2803 13.6996C93.0335 13.4527 92.7318 13.3293 92.3752 13.3293C92.1146 13.3293 91.8472 13.391 91.5729 13.5144C91.2986 13.6379 91.0655 13.8161 90.8735 14.0493V20.2824C90.8735 20.6801 90.9421 20.9681 91.0792 21.1464C91.2301 21.311 91.4769 21.3933 91.8198 21.3933C91.8198 21.8184 91.6552 22.1887 91.3261 22.5041H86.8621C86.7112 22.3533 86.5878 22.1887 86.4918 22.0104C86.4095 21.8184 86.3683 21.6127 86.3683 21.3933C86.7798 21.3933 87.0746 21.311 87.2529 21.1464C87.4312 20.9681 87.5203 20.6801 87.5203 20.2824V14.255C87.5203 13.8984 87.4175 13.6379 87.2118 13.4733C87.0198 13.3087 86.6632 13.2264 86.1421 13.2264V12.3213C86.4575 12.1293 86.8552 11.9579 87.3352 11.807C87.8289 11.6561 88.3021 11.5396 88.7546 11.4573C89.2209 11.3613 89.5775 11.3133 89.8243 11.3133C90.0986 11.3133 90.3249 11.4024 90.5032 11.5807C90.6952 11.7453 90.8186 12.095 90.8735 12.6299C91.2301 12.2321 91.6758 11.9167 92.2106 11.6836C92.7592 11.4367 93.3763 11.3133 94.0621 11.3133C95.4335 11.3133 96.3249 11.7727 96.7363 12.6916C97.0929 12.2527 97.5523 11.9167 98.1146 11.6836C98.6906 11.4367 99.3283 11.3133 100.028 11.3133C101.015 11.3133 101.749 11.5533 102.229 12.0333C102.723 12.5133 102.969 13.2127 102.969 14.1316V20.2824C102.969 20.5979 103.059 20.8379 103.237 21.0024C103.415 21.167 103.662 21.2836 103.977 21.3521V21.9487C103.731 22.1681 103.408 22.3396 103.011 22.463C102.613 22.5727 102.092 22.6276 101.447 22.6276Z" fill="black"/>
<path d="M109.83 22.7716C108.856 22.7716 107.992 22.5659 107.238 22.1544C106.483 21.7293 105.894 21.1121 105.469 20.303C105.057 19.4801 104.851 18.4653 104.851 17.2584C104.851 15.9693 105.071 14.8859 105.51 14.0081C105.949 13.1304 106.559 12.4653 107.341 12.0127C108.122 11.5601 109.021 11.3339 110.035 11.3339C111.023 11.3339 111.887 11.5464 112.627 11.9716C113.382 12.3967 113.965 13.0276 114.376 13.8641C114.801 14.687 115.014 15.7087 115.014 16.9293C115.014 18.2047 114.794 19.2813 114.355 20.159C113.917 21.023 113.306 21.6744 112.525 22.1133C111.743 22.5521 110.845 22.7716 109.83 22.7716ZM109.994 21.2904C110.282 21.2904 110.529 21.1876 110.735 20.9819C110.954 20.7761 111.119 20.399 111.229 19.8504C111.352 19.2881 111.414 18.479 111.414 17.423C111.414 16.1339 111.352 15.1601 111.229 14.5019C111.105 13.8299 110.927 13.3773 110.694 13.1441C110.461 12.911 110.186 12.7944 109.871 12.7944C109.583 12.7944 109.329 12.8973 109.11 13.103C108.89 13.3087 108.719 13.6927 108.595 14.255C108.486 14.8173 108.431 15.6333 108.431 16.703C108.431 17.9784 108.493 18.9453 108.616 19.6036C108.753 20.2619 108.938 20.7076 109.171 20.9407C109.405 21.1739 109.679 21.2904 109.994 21.2904Z" fill="black"/>
<path d="M116.515 22.5041C116.364 22.3533 116.248 22.1887 116.165 22.0104C116.083 21.8321 116.042 21.6264 116.042 21.3933C116.44 21.3933 116.721 21.311 116.885 21.1464C117.064 20.9681 117.153 20.6733 117.153 20.2619V14.3167C117.153 13.9601 117.057 13.7064 116.865 13.5556C116.673 13.391 116.316 13.3087 115.795 13.3087V12.383C116.124 12.191 116.515 12.0264 116.968 11.8893C117.42 11.7384 117.866 11.6219 118.305 11.5396C118.744 11.4436 119.087 11.3956 119.333 11.3956C119.649 11.3956 119.875 11.5053 120.012 11.7247C120.163 11.9441 120.239 12.4173 120.239 13.1441C120.389 12.8561 120.609 12.575 120.897 12.3007C121.199 12.0127 121.535 11.7796 121.905 11.6013C122.275 11.423 122.659 11.3339 123.057 11.3339C123.701 11.3339 124.161 11.4984 124.435 11.8276C124.709 12.1567 124.847 12.5819 124.847 13.103C124.847 13.6927 124.696 14.1727 124.394 14.543C124.092 14.9133 123.674 15.0984 123.139 15.0984C122.673 15.0984 122.303 14.9681 122.028 14.7076C121.754 14.4333 121.617 14.1247 121.617 13.7819C121.617 13.5624 121.637 13.391 121.679 13.2676C121.459 13.3224 121.247 13.3979 121.041 13.4939C120.835 13.5761 120.629 13.7133 120.424 13.9053V20.0767C120.424 20.3921 120.472 20.6459 120.568 20.8379C120.664 21.0299 120.849 21.1739 121.123 21.2699C121.411 21.3521 121.836 21.3933 122.399 21.3933C122.399 21.6264 122.371 21.8321 122.316 22.0104C122.261 22.1887 122.159 22.3533 122.008 22.5041H116.515Z" fill="black"/>
<path d="M128.181 9.89386C127.592 9.89386 127.118 9.72243 126.762 9.37957C126.419 9.023 126.248 8.54986 126.248 7.96014C126.248 7.38414 126.426 6.91786 126.782 6.56129C127.153 6.20471 127.633 6.02643 128.222 6.02643C128.826 6.02643 129.299 6.20471 129.642 6.56129C129.998 6.91786 130.177 7.38414 130.177 7.96014C130.177 8.54986 129.992 9.023 129.621 9.37957C129.265 9.72243 128.785 9.89386 128.181 9.89386ZM125.877 22.5041C125.726 22.3533 125.61 22.1887 125.528 22.0104C125.445 21.8321 125.404 21.6264 125.404 21.3933C125.802 21.3933 126.097 21.311 126.289 21.1464C126.481 20.9681 126.577 20.6733 126.577 20.2619V14.2961C126.577 13.9396 126.488 13.6721 126.309 13.4939C126.145 13.3156 125.781 13.2264 125.219 13.2264V12.3213C125.425 12.1979 125.74 12.0607 126.165 11.9099C126.59 11.7453 127.05 11.6081 127.544 11.4984C128.051 11.3887 128.504 11.3339 128.901 11.3339C129.217 11.3339 129.443 11.4093 129.58 11.5601C129.717 11.6973 129.786 11.9373 129.786 12.2801V20.2824C129.786 20.6939 129.889 20.9819 130.094 21.1464C130.3 21.311 130.602 21.3933 131 21.3933C131 21.6264 130.958 21.8321 130.876 22.0104C130.794 22.1887 130.677 22.3533 130.526 22.5041H125.877Z" fill="black"/>
<path d="M135.049 22.6481C134.02 22.6481 133.183 22.367 132.539 21.8047C131.908 21.2287 131.593 20.495 131.593 19.6036C131.593 18.7121 131.881 17.9921 132.457 17.4436C133.046 16.895 133.951 16.6207 135.172 16.6207C135.57 16.6207 135.988 16.6619 136.427 16.7441C136.866 16.8127 137.222 16.9224 137.497 17.0733V14.3373C137.497 13.7613 137.346 13.3636 137.044 13.1441C136.756 12.911 136.399 12.7944 135.974 12.7944C135.522 12.7944 135.151 12.9041 134.863 13.1236C135.138 13.2196 135.337 13.3704 135.46 13.5761C135.583 13.7681 135.645 13.9807 135.645 14.2139C135.645 14.6664 135.481 15.0299 135.151 15.3041C134.836 15.5647 134.445 15.695 133.979 15.695C133.458 15.695 133.039 15.5441 132.724 15.2424C132.409 14.927 132.251 14.5361 132.251 14.0699C132.251 13.6036 132.409 13.1647 132.724 12.7533C133.039 12.3281 133.526 11.9784 134.185 11.7041C134.857 11.4299 135.721 11.2927 136.777 11.2927C139.533 11.2927 140.911 12.383 140.911 14.5636V20.015C140.911 20.6733 141.227 21.071 141.858 21.2081V21.8664C141.679 22.127 141.378 22.3259 140.953 22.463C140.527 22.5864 140.116 22.6481 139.718 22.6481C138.786 22.6481 138.127 22.3259 137.743 21.6813C137.469 21.9281 137.106 22.1544 136.653 22.3601C136.201 22.5521 135.666 22.6481 135.049 22.6481ZM136.386 20.9819C136.578 20.9819 136.777 20.9544 136.982 20.8996C137.188 20.831 137.359 20.7487 137.497 20.6527V18.6573C137.359 18.5613 137.181 18.479 136.962 18.4104C136.756 18.3419 136.55 18.3076 136.345 18.3076C135.988 18.3076 135.679 18.4241 135.419 18.6573C135.158 18.8767 135.028 19.2264 135.028 19.7064C135.028 20.0767 135.151 20.3853 135.398 20.6321C135.645 20.8653 135.974 20.9819 136.386 20.9819Z" fill="black"/>
<path d="M157.787 22.6276C157.28 22.6276 156.841 22.559 156.47 22.4219C156.114 22.271 155.936 21.983 155.936 21.5579V14.7076C155.936 14.2687 155.812 13.9327 155.565 13.6996C155.332 13.4527 155.017 13.3293 154.619 13.3293C154.4 13.3293 154.173 13.3704 153.94 13.4527C153.721 13.535 153.522 13.6584 153.344 13.823C153.357 13.8779 153.364 13.9327 153.364 13.9876C153.364 14.0287 153.364 14.0767 153.364 14.1316V20.2824C153.364 20.6801 153.446 20.9681 153.611 21.1464C153.776 21.311 154.036 21.3933 154.393 21.3933C154.393 21.6127 154.345 21.8184 154.249 22.0104C154.166 22.1887 154.05 22.3533 153.899 22.5041H149.517C149.38 22.3533 149.264 22.1887 149.168 22.0104C149.085 21.8184 149.044 21.6127 149.044 21.3933C149.401 21.3933 149.648 21.311 149.785 21.1464C149.936 20.9681 150.011 20.6801 150.011 20.2824V14.7076C150.011 14.2687 149.881 13.9327 149.62 13.6996C149.373 13.4527 149.072 13.3293 148.715 13.3293C148.454 13.3293 148.187 13.391 147.913 13.5144C147.638 13.6379 147.405 13.8161 147.213 14.0493V20.2824C147.213 20.6801 147.282 20.9681 147.419 21.1464C147.57 21.311 147.817 21.3933 148.16 21.3933C148.16 21.8184 147.995 22.1887 147.666 22.5041H143.202C143.051 22.3533 142.928 22.1887 142.832 22.0104C142.749 21.8184 142.708 21.6127 142.708 21.3933C143.12 21.3933 143.414 21.311 143.593 21.1464C143.771 20.9681 143.86 20.6801 143.86 20.2824V14.255C143.86 13.8984 143.757 13.6379 143.552 13.4733C143.36 13.3087 143.003 13.2264 142.482 13.2264V12.3213C142.797 12.1293 143.195 11.9579 143.675 11.807C144.169 11.6561 144.642 11.5396 145.094 11.4573C145.561 11.3613 145.917 11.3133 146.164 11.3133C146.438 11.3133 146.665 11.4024 146.843 11.5807C147.035 11.7453 147.158 12.095 147.213 12.6299C147.57 12.2321 148.016 11.9167 148.55 11.6836C149.099 11.4367 149.716 11.3133 150.402 11.3133C151.773 11.3133 152.665 11.7727 153.076 12.6916C153.433 12.2527 153.892 11.9167 154.454 11.6836C155.03 11.4367 155.668 11.3133 156.368 11.3133C157.355 11.3133 158.089 11.5533 158.569 12.0333C159.062 12.5133 159.309 13.2127 159.309 14.1316V20.2824C159.309 20.5979 159.398 20.8379 159.577 21.0024C159.755 21.167 160.002 21.2836 160.317 21.3521V21.9487C160.07 22.1681 159.748 22.3396 159.35 22.463C158.953 22.5727 158.432 22.6276 157.787 22.6276Z" fill="black"/>
</svg>
